<svg xmlns="http://www.w3.org/2000/svg" version="1.1" xmlns:xlink="http://www.w3.org/1999/xlink" xmlns:svgjs="http://svgjs.dev/svgjs" viewBox="0 0 800 800"><defs><linearGradient x1="50%" y1="0%" x2="50%" y2="100%" id="ffflurry-grad" gradientTransform="rotate(270)"><stop stop-color="hsl(88, 59%, 3%)" stop-opacity="1" offset="0%"></stop><stop stop-color="hsl(0, 0%, 73%)" stop-opacity="1" offset="45%"></stop><stop stop-color="hsl(107, 6%, 80%)" stop-opacity="1" offset="100%"></stop></linearGradient></defs><rect width="100%" height="100%" fill="hsl(88, 59%, 3%)"></rect><g fill="url(#ffflurry-grad)"><rect width="208" height="2" x="442" y="720" rx="1" transform="rotate(40, 546, 721)" opacity="0.63"></rect><rect width="183" height="2" x="68.5" y="245" rx="1" transform="rotate(40, 160, 246)" opacity="0.38"></rect><rect width="150" height="2" x="243" y="310" rx="1" transform="rotate(40, 318, 311)" opacity="0.98"></rect><rect width="208" height="2" x="361" y="432" rx="1" transform="rotate(40, 465, 433)" opacity="0.49"></rect><rect width="216" height="2" x="498" y="124" rx="1" transform="rotate(40, 606, 125)" opacity="0.07"></rect><rect width="99" height="2" x="425.5" y="591" rx="1" transform="rotate(40, 475, 592)" opacity="0.77"></rect><rect width="66" height="2" x="397" y="212" rx="1" transform="rotate(40, 430, 213)" opacity="0.46"></rect><rect width="196" height="2" x="667" y="542" rx="1" transform="rotate(40, 765, 543)" opacity="0.42"></rect><rect width="148" height="2" x="278" y="757" rx="1" transform="rotate(40, 352, 758)" opacity="0.83"></rect><rect width="142" height="2" x="-17" y="768" rx="1" transform="rotate(40, 54, 769)" opacity="0.24"></rect><rect width="25" height="2" x="335.5" y="277" rx="1" transform="rotate(40, 348, 278)" opacity="0.53"></rect><rect width="118" height="2" x="705" y="17" rx="1" transform="rotate(40, 764, 18)" opacity="0.41"></rect><rect width="286" height="2" x="-29" y="515" rx="1" transform="rotate(40, 114, 516)" opacity="0.92"></rect><rect width="50" height="2" x="460" y="41" rx="1" transform="rotate(40, 485, 42)" opacity="0.83"></rect><rect width="155" height="2" x="-43.5" y="127" rx="1" transform="rotate(40, 34, 128)" opacity="0.53"></rect><rect width="50" height="2" x="614" y="298" rx="1" transform="rotate(40, 639, 299)" opacity="0.84"></rect><rect width="144" height="2" x="697" y="668" rx="1" transform="rotate(40, 769, 669)" opacity="0.94"></rect><rect width="46" height="2" x="188" y="193" rx="1" transform="rotate(40, 211, 194)" opacity="0.24"></rect><rect width="67" height="2" x="349.5" y="384" rx="1" transform="rotate(40, 383, 385)" opacity="0.32"></rect><rect width="166" height="2" x="681" y="138" rx="1" transform="rotate(40, 764, 139)" opacity="0.54"></rect><rect width="74" height="2" x="390" y="752" rx="1" transform="rotate(40, 427, 753)" opacity="0.72"></rect><rect width="127" height="2" x="269.5" y="522" rx="1" transform="rotate(40, 333, 523)" opacity="0.45"></rect><rect width="59" height="2" x="323.5" y="467" rx="1" transform="rotate(40, 353, 468)" opacity="0.45"></rect><rect width="172" height="2" x="610" y="358" rx="1" transform="rotate(40, 696, 359)" opacity="0.82"></rect><rect width="49" height="2" x="247.5" y="448" rx="1" transform="rotate(40, 272, 449)" opacity="0.92"></rect><rect width="171" height="2" x="445.5" y="650" rx="1" transform="rotate(40, 531, 651)" opacity="0.15"></rect><rect width="34" height="2" x="81" y="277" rx="1" transform="rotate(40, 98, 278)" opacity="0.40"></rect><rect width="38" height="2" x="261" y="54" rx="1" transform="rotate(40, 280, 55)" opacity="0.26"></rect><rect width="74" height="2" x="507" y="413" rx="1" transform="rotate(40, 544, 414)" opacity="0.96"></rect><rect width="143" height="2" x="76.5" y="762" rx="1" transform="rotate(40, 148, 763)" opacity="0.74"></rect><rect width="194" height="2" x="456" y="215" rx="1" transform="rotate(40, 553, 216)" opacity="0.13"></rect><rect width="86" height="2" x="322" y="557" rx="1" transform="rotate(40, 365, 558)" opacity="0.97"></rect><rect width="49" height="2" x="556.5" y="551" rx="1" transform="rotate(40, 581, 552)" opacity="0.36"></rect><rect width="43" height="2" x="274.5" y="496" rx="1" transform="rotate(40, 296, 497)" opacity="0.18"></rect><rect width="126" height="2" x="160" y="49" rx="1" transform="rotate(40, 223, 50)" opacity="0.78"></rect><rect width="249" height="2" x="440.5" y="42" rx="1" transform="rotate(40, 565, 43)" opacity="0.91"></rect><rect width="113" height="2" x="594.5" y="33" rx="1" transform="rotate(40, 651, 34)" opacity="0.46"></rect><rect width="137" height="2" x="382.5" y="133" rx="1" transform="rotate(40, 451, 134)" opacity="0.70"></rect><rect width="170" height="2" x="640" y="765" rx="1" transform="rotate(40, 725, 766)" opacity="0.48"></rect><rect width="116" height="2" x="-13" y="451" rx="1" transform="rotate(40, 45, 452)" opacity="0.51"></rect><rect width="143" height="2" x="454.5" y="365" rx="1" transform="rotate(40, 526, 366)" opacity="0.59"></rect><rect width="64" height="2" x="561" y="771" rx="1" transform="rotate(40, 593, 772)" opacity="0.39"></rect><rect width="112" height="2" x="433" y="507" rx="1" transform="rotate(40, 489, 508)" opacity="0.95"></rect><rect width="107" height="2" x="145.5" y="667" rx="1" transform="rotate(40, 199, 668)" opacity="0.37"></rect><rect width="213" height="2" x="577.5" y="96" rx="1" transform="rotate(40, 684, 97)" opacity="0.67"></rect><rect width="243" height="2" x="517.5" y="421" rx="1" transform="rotate(40, 639, 422)" opacity="0.38"></rect><rect width="169" height="2" x="495.5" y="277" rx="1" transform="rotate(40, 580, 278)" opacity="0.61"></rect><rect width="149" height="2" x="599.5" y="166" rx="1" transform="rotate(40, 674, 167)" opacity="0.78"></rect><rect width="214" height="2" x="81" y="550" rx="1" transform="rotate(40, 188, 551)" opacity="0.46"></rect><rect width="62" height="2" x="697" y="182" rx="1" transform="rotate(40, 728, 183)" opacity="0.85"></rect><rect width="79" height="2" x="666.5" y="486" rx="1" transform="rotate(40, 706, 487)" opacity="0.24"></rect><rect width="80" height="2" x="696" y="46" rx="1" transform="rotate(40, 736, 47)" opacity="0.79"></rect><rect width="127" height="2" x="245.5" y="254" rx="1" transform="rotate(40, 309, 255)" opacity="0.50"></rect><rect width="151" height="2" x="200.5" y="212" rx="1" transform="rotate(40, 276, 213)" opacity="0.16"></rect><rect width="42" height="2" x="389" y="318" rx="1" transform="rotate(40, 410, 319)" opacity="0.60"></rect><rect width="54" height="2" x="341" y="692" rx="1" transform="rotate(40, 368, 693)" opacity="0.91"></rect><rect width="179" height="2" x="164.5" y="291" rx="1" transform="rotate(40, 254, 292)" opacity="0.35"></rect><rect width="110" height="2" x="219" y="569" rx="1" transform="rotate(40, 274, 570)" opacity="0.15"></rect><rect width="49" height="2" x="434.5" y="312" rx="1" transform="rotate(40, 459, 313)" opacity="0.49"></rect><rect width="163" height="2" x="-47.5" y="681" rx="1" transform="rotate(40, 34, 682)" opacity="0.37"></rect><rect width="213" height="2" x="495.5" y="355" rx="1" transform="rotate(40, 602, 356)" opacity="0.93"></rect><rect width="121" height="2" x="191.5" y="382" rx="1" transform="rotate(40, 252, 383)" opacity="0.57"></rect><rect width="60" height="2" x="495" y="118" rx="1" transform="rotate(40, 525, 119)" opacity="0.87"></rect><rect width="173" height="2" x="510.5" y="485" rx="1" transform="rotate(40, 597, 486)" opacity="0.80"></rect><rect width="137" height="2" x="636.5" y="705" rx="1" transform="rotate(40, 705, 706)" opacity="0.76"></rect><rect width="207" height="2" x="114.5" y="457" rx="1" transform="rotate(40, 218, 458)" opacity="0.73"></rect><rect width="163" height="2" x="309.5" y="130" rx="1" transform="rotate(40, 391, 131)" opacity="0.57"></rect><rect width="60" height="2" x="648" y="234" rx="1" transform="rotate(40, 678, 235)" opacity="0.09"></rect><rect width="195" height="2" x="-51.5" y="356" rx="1" transform="rotate(40, 46, 357)" opacity="0.15"></rect><rect width="97" height="2" x="648.5" y="296" rx="1" transform="rotate(40, 697, 297)" opacity="0.92"></rect><rect width="140" height="2" x="542" y="202" rx="1" transform="rotate(40, 612, 203)" opacity="0.14"></rect><rect width="221" height="2" x="597.5" y="574" rx="1" transform="rotate(40, 708, 575)" opacity="0.95"></rect><rect width="197" height="2" x="359.5" y="675" rx="1" transform="rotate(40, 458, 676)" opacity="0.89"></rect><rect width="184" height="2" x="32" y="391" rx="1" transform="rotate(40, 124, 392)" opacity="0.92"></rect><rect width="56" height="2" x="466" y="765" rx="1" transform="rotate(40, 494, 766)" opacity="0.64"></rect><rect width="58" height="2" x="430" y="372" rx="1" transform="rotate(40, 459, 373)" opacity="0.77"></rect><rect width="243" height="2" x="-87.5" y="42" rx="1" transform="rotate(40, 34, 43)" opacity="0.18"></rect><rect width="128" height="2" x="254" y="359" rx="1" transform="rotate(40, 318, 360)" opacity="0.13"></rect><rect width="56" height="2" x="741" y="320" rx="1" transform="rotate(40, 769, 321)" opacity="0.38"></rect><rect width="89" height="2" x="234.5" y="699" rx="1" transform="rotate(40, 279, 700)" opacity="0.41"></rect><rect width="36" height="2" x="635" y="522" rx="1" transform="rotate(40, 653, 523)" opacity="0.47"></rect><rect width="57" height="2" x="384.5" y="360" rx="1" transform="rotate(40, 413, 361)" opacity="0.60"></rect><rect width="84" height="2" x="308" y="30" rx="1" transform="rotate(40, 350, 31)" opacity="0.80"></rect><rect width="144" height="2" x="40" y="171" rx="1" transform="rotate(40, 112, 172)" opacity="0.43"></rect><rect width="48" height="2" x="396" y="271" rx="1" transform="rotate(40, 420, 272)" opacity="0.26"></rect><rect width="78" height="2" x="391" y="552" rx="1" transform="rotate(40, 430, 553)" opacity="0.84"></rect><rect width="92" height="2" x="325" y="175" rx="1" transform="rotate(40, 371, 176)" opacity="0.66"></rect><rect width="160" height="2" x="236" y="627" rx="1" transform="rotate(40, 316, 628)" opacity="0.21"></rect><rect width="217" height="2" x="179.5" y="139" rx="1" transform="rotate(40, 288, 140)" opacity="0.25"></rect><rect width="268" height="2" x="-11" y="617" rx="1" transform="rotate(40, 123, 618)" opacity="0.30"></rect><rect width="103" height="2" x="-14.5" y="294" rx="1" transform="rotate(40, 37, 295)" opacity="0.41"></rect><rect width="59" height="2" x="725.5" y="264" rx="1" transform="rotate(40, 755, 265)" opacity="0.74"></rect><rect width="23" height="2" x="368.5" y="260" rx="1" transform="rotate(40, 380, 261)" opacity="0.71"></rect><rect width="272" height="2" x="476" y="690" rx="1" transform="rotate(40, 612, 691)" opacity="0.85"></rect><rect width="100" height="2" x="158" y="341" rx="1" transform="rotate(40, 208, 342)" opacity="0.92"></rect><rect width="66" height="2" x="22" y="238" rx="1" transform="rotate(40, 55, 239)" opacity="0.26"></rect><rect width="135" height="2" x="704.5" y="472" rx="1" transform="rotate(40, 772, 473)" opacity="0.94"></rect><rect width="104" height="2" x="116" y="699" rx="1" transform="rotate(40, 168, 700)" opacity="0.78"></rect><rect width="199" height="2" x="591.5" y="645" rx="1" transform="rotate(40, 691, 646)" opacity="0.87"></rect><rect width="91" height="2" x="374.5" y="46" rx="1" transform="rotate(40, 420, 47)" opacity="0.10"></rect><rect width="104" height="2" x="300" y="94" rx="1" transform="rotate(40, 352, 95)" opacity="0.53"></rect><rect width="173" height="2" x="-60.5" y="186" rx="1" transform="rotate(40, 26, 187)" opacity="0.66"></rect><rect width="135" height="2" x="453.5" y="314" rx="1" transform="rotate(40, 521, 315)" opacity="0.82"></rect><rect width="63" height="2" x="467.5" y="190" rx="1" transform="rotate(40, 499, 191)" opacity="0.42"></rect><rect width="135" height="2" x="77.5" y="319" rx="1" transform="rotate(40, 145, 320)" opacity="0.09"></rect><rect width="115" height="2" x="287.5" y="407" rx="1" transform="rotate(40, 345, 408)" opacity="0.93"></rect><rect width="113" height="2" x="716.5" y="383" rx="1" transform="rotate(40, 773, 384)" opacity="0.93"></rect><rect width="69" height="2" x="282.5" y="443" rx="1" transform="rotate(40, 317, 444)" opacity="0.67"></rect><rect width="108" height="2" x="579" y="611" rx="1" transform="rotate(40, 633, 612)" opacity="0.92"></rect><rect width="149" height="2" x="468.5" y="588" rx="1" transform="rotate(40, 543, 589)" opacity="0.09"></rect><rect width="33" height="2" x="67.5" y="210" rx="1" transform="rotate(40, 84, 211)" opacity="0.60"></rect><rect width="119" height="2" x="305.5" y="330" rx="1" transform="rotate(40, 365, 331)" opacity="0.19"></rect><rect width="80" height="2" x="735" y="208" rx="1" transform="rotate(40, 775, 209)" opacity="0.37"></rect><rect width="165" height="2" x="161.5" y="510" rx="1" transform="rotate(40, 244, 511)" opacity="0.52"></rect><rect width="106" height="2" x="170" y="759" rx="1" transform="rotate(40, 223, 760)" opacity="0.73"></rect><rect width="117" height="2" x="-42.5" y="247" rx="1" transform="rotate(40, 16, 248)" opacity="0.26"></rect><rect width="117" height="2" x="110.5" y="36" rx="1" transform="rotate(40, 169, 37)" opacity="0.24"></rect><rect width="108" height="2" x="241" y="405" rx="1" transform="rotate(40, 295, 406)" opacity="0.62"></rect><rect width="154" height="2" x="335" y="489" rx="1" transform="rotate(40, 412, 490)" opacity="0.07"></rect><rect width="296" height="2" x="-108" y="570" rx="1" transform="rotate(40, 40, 571)" opacity="0.64"></rect><rect width="130" height="2" x="231" y="774" rx="1" transform="rotate(40, 296, 775)" opacity="0.75"></rect><rect width="187" height="2" x="7.5" y="703" rx="1" transform="rotate(40, 101, 704)" opacity="0.19"></rect><rect width="172" height="2" x="145" y="624" rx="1" transform="rotate(40, 231, 625)" opacity="0.71"></rect><rect width="128" height="2" x="476" y="469" rx="1" transform="rotate(40, 540, 470)" opacity="0.81"></rect><rect width="142" height="2" x="323" y="621" rx="1" transform="rotate(40, 394, 622)" opacity="0.71"></rect><rect width="70" height="2" x="316" y="215" rx="1" transform="rotate(40, 351, 216)" opacity="0.62"></rect><rect width="215" height="2" x="-14.5" y="98" rx="1" transform="rotate(40, 93, 99)" opacity="0.25"></rect><rect width="208" height="2" x="386" y="259" rx="1" transform="rotate(40, 490, 260)" opacity="0.97"></rect><rect width="162" height="2" x="93" y="123" rx="1" transform="rotate(40, 174, 124)" opacity="0.51"></rect><rect width="41" height="2" x="754.5" y="597" rx="1" transform="rotate(40, 775, 598)" opacity="0.27"></rect><rect width="69" height="2" x="130.5" y="441" rx="1" transform="rotate(40, 165, 442)" opacity="0.50"></rect><rect width="114" height="2" x="52" y="33" rx="1" transform="rotate(40, 109, 34)" opacity="0.91"></rect><rect width="55" height="2" x="372.5" y="431" rx="1" transform="rotate(40, 400, 432)" opacity="0.90"></rect><rect width="85" height="2" x="722.5" y="89" rx="1" transform="rotate(40, 765, 90)" opacity="0.70"></rect><rect width="35" height="2" x="706.5" y="419" rx="1" transform="rotate(40, 724, 420)" opacity="0.96"></rect></g></svg>