<svg xmlns="http://www.w3.org/2000/svg" version="1.1" xmlns:xlink="http://www.w3.org/1999/xlink" xmlns:svgjs="http://svgjs.dev/svgjs" viewBox="0 0 1422 800"><defs><linearGradient x1="50%" y1="0%" x2="50%" y2="100%" id="oooscillate-grad"><stop stop-color="hsl(88, 32%, 37%)" stop-opacity="1" offset="0%"></stop><stop stop-color="hsl(225, 24%, 67%)" stop-opacity="1" offset="100%"></stop></linearGradient></defs><g stroke-width="2" stroke="url(#oooscillate-grad)" fill="none" stroke-linecap="round"><path d="M 0 845 Q 355.5 -100 711 400 Q 1066.5 900 1422 845" stroke-dasharray="4 2" opacity="0.42"></path><path d="M 0 832 Q 355.5 -100 711 400 Q 1066.5 900 1422 832" stroke-dasharray="2 1" opacity="0.61"></path><path d="M 0 819 Q 355.5 -100 711 400 Q 1066.5 900 1422 819" stroke-dasharray="4 6" opacity="0.46"></path><path d="M 0 806 Q 355.5 -100 711 400 Q 1066.5 900 1422 806" stroke-dasharray="6 1" opacity="0.38"></path><path d="M 0 793 Q 355.5 -100 711 400 Q 1066.5 900 1422 793" stroke-dasharray="4 0" opacity="0.99"></path><path d="M 0 780 Q 355.5 -100 711 400 Q 1066.5 900 1422 780" stroke-dasharray="3 4" opacity="0.73"></path><path d="M 0 767 Q 355.5 -100 711 400 Q 1066.5 900 1422 767" stroke-dasharray="2 0" opacity="0.90"></path><path d="M 0 754 Q 355.5 -100 711 400 Q 1066.5 900 1422 754" stroke-dasharray="0 5" opacity="0.16"></path><path d="M 0 741 Q 355.5 -100 711 400 Q 1066.5 900 1422 741" stroke-dasharray="1 3" opacity="0.83"></path><path d="M 0 728 Q 355.5 -100 711 400 Q 1066.5 900 1422 728" stroke-dasharray="4 5" opacity="0.66"></path><path d="M 0 715 Q 355.5 -100 711 400 Q 1066.5 900 1422 715" stroke-dasharray="1 1" opacity="0.23"></path><path d="M 0 702 Q 355.5 -100 711 400 Q 1066.5 900 1422 702" stroke-dasharray="1 2" opacity="0.42"></path><path d="M 0 689 Q 355.5 -100 711 400 Q 1066.5 900 1422 689" stroke-dasharray="4 5" opacity="0.40"></path><path d="M 0 676 Q 355.5 -100 711 400 Q 1066.5 900 1422 676" stroke-dasharray="0 2" opacity="0.46"></path><path d="M 0 663 Q 355.5 -100 711 400 Q 1066.5 900 1422 663" stroke-dasharray="3 3" opacity="0.89"></path><path d="M 0 650 Q 355.5 -100 711 400 Q 1066.5 900 1422 650" stroke-dasharray="3 4" opacity="0.37"></path><path d="M 0 637 Q 355.5 -100 711 400 Q 1066.5 900 1422 637" stroke-dasharray="0 3" opacity="0.64"></path><path d="M 0 624 Q 355.5 -100 711 400 Q 1066.5 900 1422 624" stroke-dasharray="4 5" opacity="0.30"></path><path d="M 0 611 Q 355.5 -100 711 400 Q 1066.5 900 1422 611" stroke-dasharray="3 2" opacity="0.54"></path><path d="M 0 598 Q 355.5 -100 711 400 Q 1066.5 900 1422 598" stroke-dasharray="6 5" opacity="0.51"></path><path d="M 0 585 Q 355.5 -100 711 400 Q 1066.5 900 1422 585" stroke-dasharray="4 2" opacity="0.10"></path><path d="M 0 572 Q 355.5 -100 711 400 Q 1066.5 900 1422 572" stroke-dasharray="4 5" opacity="0.49"></path><path d="M 0 559 Q 355.5 -100 711 400 Q 1066.5 900 1422 559" stroke-dasharray="1 3" opacity="0.54"></path><path d="M 0 546 Q 355.5 -100 711 400 Q 1066.5 900 1422 546" stroke-dasharray="4 5" opacity="0.61"></path><path d="M 0 533 Q 355.5 -100 711 400 Q 1066.5 900 1422 533" stroke-dasharray="3 3" opacity="0.53"></path><path d="M 0 520 Q 355.5 -100 711 400 Q 1066.5 900 1422 520" stroke-dasharray="3 6" opacity="0.25"></path><path d="M 0 507 Q 355.5 -100 711 400 Q 1066.5 900 1422 507" stroke-dasharray="6 3" opacity="0.38"></path><path d="M 0 494 Q 355.5 -100 711 400 Q 1066.5 900 1422 494" stroke-dasharray="6 3" opacity="0.93"></path><path d="M 0 481 Q 355.5 -100 711 400 Q 1066.5 900 1422 481" stroke-dasharray="2 4" opacity="0.86"></path><path d="M 0 468 Q 355.5 -100 711 400 Q 1066.5 900 1422 468" stroke-dasharray="4 1" opacity="0.16"></path><path d="M 0 455 Q 355.5 -100 711 400 Q 1066.5 900 1422 455" stroke-dasharray="3 1" opacity="0.16"></path><path d="M 0 442 Q 355.5 -100 711 400 Q 1066.5 900 1422 442" stroke-dasharray="4 1" opacity="0.44"></path><path d="M 0 429 Q 355.5 -100 711 400 Q 1066.5 900 1422 429" stroke-dasharray="4 2" opacity="0.77"></path><path d="M 0 416 Q 355.5 -100 711 400 Q 1066.5 900 1422 416" stroke-dasharray="1 4" opacity="0.59"></path><path d="M 0 403 Q 355.5 -100 711 400 Q 1066.5 900 1422 403" stroke-dasharray="0 5" opacity="0.50"></path><path d="M 0 390 Q 355.5 -100 711 400 Q 1066.5 900 1422 390" stroke-dasharray="3 1" opacity="0.12"></path><path d="M 0 377 Q 355.5 -100 711 400 Q 1066.5 900 1422 377" stroke-dasharray="0 5" opacity="0.12"></path><path d="M 0 364 Q 355.5 -100 711 400 Q 1066.5 900 1422 364" stroke-dasharray="4 2" opacity="0.70"></path><path d="M 0 351 Q 355.5 -100 711 400 Q 1066.5 900 1422 351" stroke-dasharray="2 3" opacity="0.13"></path><path d="M 0 338 Q 355.5 -100 711 400 Q 1066.5 900 1422 338" stroke-dasharray="2 3" opacity="0.41"></path><path d="M 0 325 Q 355.5 -100 711 400 Q 1066.5 900 1422 325" stroke-dasharray="4 1" opacity="0.17"></path><path d="M 0 312 Q 355.5 -100 711 400 Q 1066.5 900 1422 312" stroke-dasharray="5 5" opacity="0.66"></path><path d="M 0 299 Q 355.5 -100 711 400 Q 1066.5 900 1422 299" stroke-dasharray="5 2" opacity="0.40"></path><path d="M 0 286 Q 355.5 -100 711 400 Q 1066.5 900 1422 286" stroke-dasharray="4 2" opacity="0.56"></path><path d="M 0 273 Q 355.5 -100 711 400 Q 1066.5 900 1422 273" stroke-dasharray="5 1" opacity="0.53"></path><path d="M 0 260 Q 355.5 -100 711 400 Q 1066.5 900 1422 260" stroke-dasharray="1 4" opacity="1.00"></path><path d="M 0 247 Q 355.5 -100 711 400 Q 1066.5 900 1422 247" stroke-dasharray="5 2" opacity="0.62"></path><path d="M 0 234 Q 355.5 -100 711 400 Q 1066.5 900 1422 234" stroke-dasharray="2 3" opacity="0.32"></path><path d="M 0 221 Q 355.5 -100 711 400 Q 1066.5 900 1422 221" stroke-dasharray="6 4" opacity="0.72"></path><path d="M 0 208 Q 355.5 -100 711 400 Q 1066.5 900 1422 208" stroke-dasharray="1 1" opacity="0.11"></path><path d="M 0 195 Q 355.5 -100 711 400 Q 1066.5 900 1422 195" stroke-dasharray="3 4" opacity="0.50"></path><path d="M 0 182 Q 355.5 -100 711 400 Q 1066.5 900 1422 182" stroke-dasharray="3 1" opacity="0.82"></path><path d="M 0 169 Q 355.5 -100 711 400 Q 1066.5 900 1422 169" stroke-dasharray="1 3" opacity="0.62"></path><path d="M 0 156 Q 355.5 -100 711 400 Q 1066.5 900 1422 156" stroke-dasharray="6 3" opacity="0.74"></path><path d="M 0 143 Q 355.5 -100 711 400 Q 1066.5 900 1422 143" stroke-dasharray="6 5" opacity="0.96"></path><path d="M 0 130 Q 355.5 -100 711 400 Q 1066.5 900 1422 130" stroke-dasharray="5 3" opacity="0.09"></path><path d="M 0 117 Q 355.5 -100 711 400 Q 1066.5 900 1422 117" stroke-dasharray="0 3" opacity="0.94"></path><path d="M 0 104 Q 355.5 -100 711 400 Q 1066.5 900 1422 104" stroke-dasharray="1 3" opacity="0.40"></path><path d="M 0 91 Q 355.5 -100 711 400 Q 1066.5 900 1422 91" stroke-dasharray="5 3" opacity="0.15"></path><path d="M 0 78 Q 355.5 -100 711 400 Q 1066.5 900 1422 78" stroke-dasharray="5 1" opacity="0.90"></path><path d="M 0 65 Q 355.5 -100 711 400 Q 1066.5 900 1422 65" stroke-dasharray="5 4" opacity="0.50"></path><path d="M 0 52 Q 355.5 -100 711 400 Q 1066.5 900 1422 52" stroke-dasharray="1 2" opacity="0.67"></path><path d="M 0 39 Q 355.5 -100 711 400 Q 1066.5 900 1422 39" stroke-dasharray="2 1" opacity="0.81"></path><path d="M 0 26 Q 355.5 -100 711 400 Q 1066.5 900 1422 26" stroke-dasharray="3 5" opacity="0.32"></path></g></svg>