<svg xmlns="http://www.w3.org/2000/svg" version="1.1" xmlns:xlink="http://www.w3.org/1999/xlink" viewBox="0 0 700 700" style="overflow: hidden; display: block;" width="700" height="700"><defs></defs><g id="two-0" transform="matrix(1 0 0 1 0 0)" opacity="1"><path transform="matrix(1 0 0 1 350 350)" id="two-386" d="M 261.841342 55.656095 C 259.070438 88.676294 316.158125 107.363603 315.555544 140.49438 C 315.124408 164.198898 295.673734 188.255473 274.942046 199.757089 C 248.504518 214.424217 208.593722 186.968791 183.410002 203.697444 C 164.350318 216.358117 171.40438 251.775038 153.804536 266.397272 C 137.544203 279.906619 112.842521 280.21754 91.845327 282.670852 C 71.421195 285.057207 49.322099 275.508772 29.551273 281.161588 C 5.45105 288.052252 -9.341046 327.708668 -33.934388 322.864134 C -61.51322 317.431502 -58.282091 267.56368 -82.072365 252.592765 C -98.617457 242.181151 -121.104839 244.752118 -140.616602 243.555097 C -167.280261 241.919317 -203.76122 265.98124 -221.529528 246.033466 C -242.664789 222.305747 -188.99073 176.586203 -207.514889 150.768391 C -225.714911 125.40234 -288.181725 162.479388 -300.592124 133.832236 C -313.248558 104.617158 -241.257974 83.828435 -248.26903 52.771211 C -255.563383 20.459052 -327.361424 32.521337 -333.657916 0 C -338.434943 -24.673308 -295.541195 -37.19767 -288.499236 -61.322406 C -282.087654 -83.287558 -297.67087 -108.081516 -293.123113 -130.506819 C -288.690062 -152.3665 -272.457439 -170.805452 -262.699575 -190.862413 C -252.121801 -212.60467 -249.353383 -240.802857 -231.578122 -257.193561 C -213.878441 -273.514572 -187.200918 -285.068206 -163.238074 -282.736638 C -128.833208 -279.389068 -108.355778 -223.770153 -74.028374 -227.835906 C -52.990259 -230.327669 -44.268759 -258.926531 -28.727484 -273.32375 C -8.630078 -291.941707 7.038455 -325.775139 34.394859 -327.245232 C 57.88905 -328.507774 70.237203 -291.88117 93.256102 -287.012773 C 119.884352 -281.381014 154.226515 -320.314708 174.35963 -301.999739 C 203.805367 -275.213135 145.893132 -217.428413 163.731695 -181.842471 C 171.863461 -165.620504 198.963818 -166.942463 210.517119 -152.949641 C 221.902046 -139.160746 218.033353 -115.80006 229.748555 -102.290648 C 247.005761 -82.390461 284.139523 -85.002263 299.611265 -63.684341 C 312.180758 -46.365315 317.567151 -20.617948 311.836437 -0.000001 C 305.224938 23.786832 263.905838 31.053998 261.841342 55.656095 Z " fill="hsl(87, 21%, 58%)" stroke="undefined" stroke-width="1" stroke-opacity="1" fill-opacity="1" visibility="visible" stroke-linecap="butt" stroke-linejoin="miter" stroke-miterlimit="4"></path></g></svg>